<svg width="20" height="20" viewBox="0 0 20 20" fill="none" xmlns="http://www.w3.org/2000/svg">
<path fill-rule="evenodd" clip-rule="evenodd" d="M16.0039 8.75V13.75L17.2839 15.04C17.9139 15.67 17.4639 16.75 16.5739 16.75H3.40388C2.51388 16.75 2.07388 15.67 2.70388 15.04L4.00388 13.75V8.75C4.00388 5.67 5.63388 3.11 8.50388 2.43V1.75C8.50388 0.92 9.16388 0.25 9.99388 0.25C10.8239 0.25 11.5039 0.92 11.5039 1.75V2.43C14.3639 3.11 16.0039 5.68 16.0039 8.75ZM11.9939 17.75C11.9939 18.85 11.0939 19.75 9.99388 19.75C8.88388 19.75 7.99388 18.85 7.99388 17.75H11.9939ZM4.77388 2.48C5.19388 2.1 5.20388 1.45 4.80388 1.05C4.42388 0.67 3.80388 0.66 3.41388 1.03C1.70388 2.59 0.523883 4.71 0.143883 7.09C0.0538834 7.7 0.523883 8.25 1.14388 8.25C1.62388 8.25 2.04388 7.9 2.12388 7.42C2.42388 5.48 3.38388 3.75 4.77388 2.48ZM15.2039 1.05C15.5839 0.67 16.2039 0.66 16.6039 1.03C18.3039 2.6 19.4739 4.71 19.8539 7.08C19.9539 7.69 19.4739 8.24 18.8639 8.24C18.3739 8.24 17.9539 7.89 17.8839 7.41C17.5839 5.47 16.6139 3.74 15.2339 2.47C14.8239 2.09 14.8039 1.45 15.2039 1.05Z" fill="black"/>
</svg>
