<svg width="60" height="60" viewBox="0 0 60 60" fill="none" xmlns="http://www.w3.org/2000/svg">
<path d="M31.1973 0.0244529C14.2373 -0.635913 0.174177 12.7176 0.0016017 29.6898C-0.10934 40.5498 5.5522 50.0953 14.1053 55.4497C15.5457 56.3515 17.4229 55.3473 17.4811 53.6488L18.0076 37.9488C7.29732 35.5979 12.2263 14.4239 20.0574 14.4239C27.8902 14.4239 32.8191 35.5979 22.1106 37.9488L22.6671 54.5756C22.764 57.4138 24.9863 59.7198 27.8197 59.923C28.54 59.9747 29.2672 60.001 29.9998 60.001C30.787 60.001 31.5688 59.9705 32.3419 59.9108C35.1577 59.6933 37.3536 57.3831 37.4452 54.5608L38.0105 37.0718C29.5596 35.3302 31.479 22.4822 34.6928 16.0511C35.1366 15.1618 36.3182 15.1565 36.3182 15.9507V27.677C36.3182 27.9676 36.4379 28.2335 36.6281 28.4237C36.8201 28.6156 37.0842 28.7336 37.3765 28.7336C37.9594 28.7336 38.4331 28.2599 38.4331 27.677V16.0493C38.4331 15.6003 38.6145 15.1935 38.9086 14.8994C39.2044 14.6071 39.6112 14.4239 40.0585 14.4239C40.9584 14.4239 41.6857 15.1512 41.6857 16.0493V27.677C41.6857 27.9676 41.8036 28.2335 41.9938 28.4237C42.1858 28.6156 42.4517 28.7336 42.7422 28.7336C43.3251 28.7336 43.7988 28.2599 43.7988 27.677V15.9507C43.7988 15.1565 44.9822 15.1618 45.426 16.0511C48.6415 22.4822 50.561 35.3302 42.11 37.0718L42.6436 53.5674C42.7 55.281 44.5965 56.2728 46.0441 55.3546C54.4774 50.0062 60.0597 40.5674 59.9998 29.8272C59.9082 13.6791 47.1887 0.646077 31.1973 0.0244529Z" fill="url(#paint0_linear_53_430)"/>
<defs>
<linearGradient id="paint0_linear_53_430" x1="59.9612" y1="59.9621" x2="-4.10904e-06" y2="0.00095208" gradientUnits="userSpaceOnUse">
<stop stop-color="#1867FF"/>
<stop offset="1" stop-color="#74A3FF"/>
</linearGradient>
</defs>
</svg>
