<svg width="76" height="56" viewBox="0 0 76 56" fill="none" xmlns="http://www.w3.org/2000/svg">
<path fill-rule="evenodd" clip-rule="evenodd" d="M38 0.500977C49.375 0.500977 58.8437 9.4041 60.9687 21.2635C69.0937 21.8822 75.5 29.2385 75.5 38.3135C75.5 47.801 68.5 55.501 59.875 55.501H51.3239L40.1751 43.2373L43.0582 40.0659C46.0589 41.5977 50.2756 40.519 53.3941 37.0887C57.1401 32.9681 57.8658 27.0568 54.9827 23.8854C52.1192 20.7356 46.7454 21.5123 42.9797 25.6329C39.8613 29.0632 38.8807 33.7016 40.2732 37.0024L23.4563 55.501H19.25C8.90625 55.501 0.5 46.2541 0.5 34.876C0.5 24.2541 7.8125 15.4885 17.2187 14.3885C21.125 6.13848 28.9687 0.500977 38 0.500977ZM29.762 43.9708L35.3124 37.8654L23.1721 24.5327C22.2307 23.4971 20.6028 23.7776 20.0144 25.1152C18.6219 28.3297 19.1319 32.2777 21.5442 34.9529L29.762 43.9708Z" fill="url(#paint0_linear_53_4152)"/>
<path d="M28.9991 55.501H45.7931L37.4097 46.2792L28.9991 55.501Z" fill="url(#paint1_linear_53_4152)"/>
<defs>
<linearGradient id="paint0_linear_53_4152" x1="75.5" y1="55.6346" x2="23.0434" y2="-15.8972" gradientUnits="userSpaceOnUse">
<stop stop-color="#FFB800"/>
<stop offset="1" stop-color="#FFDA7B"/>
</linearGradient>
<linearGradient id="paint1_linear_53_4152" x1="75.5" y1="55.6346" x2="23.0434" y2="-15.8972" gradientUnits="userSpaceOnUse">
<stop stop-color="#FFB800"/>
<stop offset="1" stop-color="#FFDA7B"/>
</linearGradient>
</defs>
</svg>
