<svg width="82" height="60" viewBox="0 0 82 60" fill="none" xmlns="http://www.w3.org/2000/svg">
<path d="M81.6415 26.8905C81.4825 18.2588 74.5772 11.1482 65.9515 10.7518C63.9515 10.6593 62.0239 10.9269 60.2312 11.4902C56.5451 4.64924 49.3157 0.000976562 40.9999 0.000976562C32.684 0.000976562 25.4547 4.64924 21.7686 11.4902C19.9759 10.9269 18.0483 10.6593 16.0483 10.7518C7.42465 11.1482 0.517279 18.2588 0.358327 26.8905C0.199374 35.5283 6.69025 42.6812 15.0524 43.5745V57.9587C15.0524 59.0875 15.9679 60.001 17.0946 60.001H25.5774C26.67 60.001 27.5674 59.1438 27.6177 58.0533L28.2274 44.8341C16.9156 42.2908 22.1429 19.8705 30.4466 19.8705C38.7504 19.8705 43.9798 42.2908 32.668 44.8341L33.2776 58.0533C33.3279 59.1438 34.2273 60.001 35.3179 60.001H46.8067C47.8993 60.001 48.7986 59.1418 48.8469 58.0493L49.4646 43.9025C40.5371 42.0252 42.5733 28.4177 45.9818 21.5968C46.4526 20.6552 47.7081 20.6471 47.7081 21.4922V33.9388C47.7081 34.5706 48.2292 35.0796 48.865 35.0595C49.4787 35.0414 49.9515 34.5062 49.9515 33.8905V21.6552C49.9515 20.7356 50.6477 19.9328 51.5652 19.8745C52.5713 19.8121 53.4042 20.6069 53.4042 21.5968V33.9388C53.4042 34.5706 53.9254 35.0796 54.5592 35.0595C55.1749 35.0414 55.6477 34.5062 55.6477 33.8905V21.4922C55.6477 20.6471 56.9032 20.6552 57.374 21.5968C60.7825 28.4177 62.8167 42.0252 53.8912 43.9025L54.5109 58.0493C54.5592 59.1418 55.4586 60.001 56.5511 60.001H64.9052C66.034 60.001 66.9474 59.0875 66.9474 57.9587V43.5745C75.3116 42.6812 81.8004 35.5283 81.6415 26.8905Z" fill="url(#paint0_linear_53_4043)"/>
<defs>
<linearGradient id="paint0_linear_53_4043" x1="81.3555" y1="60.001" x2="0.355469" y2="0.000975785" gradientUnits="userSpaceOnUse">
<stop stop-color="#23A757"/>
<stop offset="1" stop-color="#65FFA1"/>
</linearGradient>
</defs>
</svg>
