<svg width="72" height="60" viewBox="0 0 72 60" fill="none" xmlns="http://www.w3.org/2000/svg">
<path d="M35.9993 7.23355C14.5266 -16.0576 -22.7355 21.8199 20.1162 51.3092C21.7767 52.4508 24.0433 51.3333 24.137 49.3214L24.5227 40.9304C24.5558 40.2287 24.1443 39.5785 23.4904 39.3195C14.8297 35.8827 19.4273 17.3398 26.5671 17.3398C33.7069 17.3398 38.3027 35.8827 29.642 39.3195C28.9881 39.5785 28.5767 40.2287 28.6097 40.9304L29.023 49.8897C29.2195 54.1749 31.7709 58.1539 35.9993 60.001C40.4445 58.0593 42.9003 54.03 43.084 49.8155L43.5101 40.1166C43.5414 39.3966 43.1005 38.7464 42.4282 38.4874C35.7734 35.9268 37.5606 24.6688 40.4518 18.8828C40.8743 18.0397 41.9948 18.0342 41.9948 18.7891V29.8726C41.9948 30.4218 42.4191 30.9012 42.9683 30.9177C43.5359 30.9343 44.0006 30.4788 44.0006 29.9148V18.936C44.0006 18.1131 44.6214 17.3968 45.4407 17.3435C46.3407 17.2847 47.0865 17.9974 47.0865 18.8828V29.8726C47.0865 30.4218 47.5108 30.9012 48.0582 30.9177C48.6276 30.9343 49.0923 30.4788 49.0923 29.9148V18.7891C49.0923 18.0342 50.2146 18.0397 50.6353 18.8828C53.5283 24.6688 55.3137 35.9268 48.6588 38.4874C47.9865 38.7464 47.5475 39.3966 47.5787 40.1166L47.9774 49.2353C48.0655 51.2518 50.3414 52.3742 52.0019 51.2268C94.6661 21.7446 57.4536 -16.0355 35.9993 7.23355Z" fill="url(#paint0_linear_53_2156)"/>
<defs>
<linearGradient id="paint0_linear_53_2156" x1="71.5826" y1="-0.144778" x2="12.4459" y2="69.9969" gradientUnits="userSpaceOnUse">
<stop stop-color="#FFB800"/>
<stop offset="1" stop-color="#FFDA7B"/>
</linearGradient>
</defs>
</svg>
