<svg width="70" height="60" viewBox="0 0 70 60" fill="none" xmlns="http://www.w3.org/2000/svg">
<path d="M30.4432 58.2117C33.0272 60.5917 37.0053 60.5917 39.5893 58.2457L39.9293 57.9397L40.1346 57.7531C42.6425 55.4745 45.0279 53.3073 47.2738 51.2284L35.6915 39.6835L23.4879 51.887C25.5704 53.801 27.7684 55.79 30.0692 57.8717L30.4432 58.2117Z" fill="url(#paint0_linear_53_4142)"/>
<path fill-rule="evenodd" clip-rule="evenodd" d="M20.1076 48.7462C8.02151 37.3669 0.645759 28.497 0.998958 17.9554C1.20296 12.1753 4.16098 6.63326 8.95502 3.36923C17.9311 -2.75082 29.0152 0.105202 34.9992 7.10926C40.9833 0.105202 52.0674 -2.78482 61.0434 3.36923C65.8375 6.63326 68.7955 12.1753 68.9995 17.9554C69.3719 28.277 62.293 36.996 50.6451 48.0696L32.3152 29.7398C33.9571 26.2017 32.8009 21.2298 29.124 17.5529C24.684 13.1361 18.3478 12.3036 14.9716 15.6798C11.5722 19.0792 12.4278 25.4154 16.8447 29.8323C20.5215 33.5091 25.4934 34.6654 29.0315 33.0235L32.4309 36.4229L20.1076 48.7462ZM44.7078 37.2092L38.1635 30.6648L52.4778 16.3737C53.5878 15.2637 55.5071 15.5643 56.2009 16.998C57.8427 20.4436 57.2415 24.6755 54.3971 27.543L44.7078 37.2092Z" fill="url(#paint1_linear_53_4142)"/>
<defs>
<linearGradient id="paint0_linear_53_4142" x1="69.0135" y1="60.1467" x2="9.48337" y2="-7.34728" gradientUnits="userSpaceOnUse">
<stop stop-color="#FF1843"/>
<stop offset="1" stop-color="#FF7E95"/>
</linearGradient>
<linearGradient id="paint1_linear_53_4142" x1="69.0135" y1="60.1467" x2="9.48337" y2="-7.34728" gradientUnits="userSpaceOnUse">
<stop stop-color="#FF1843"/>
<stop offset="1" stop-color="#FF7E95"/>
</linearGradient>
</defs>
</svg>
