<svg width="60" height="60" viewBox="0 0 60 60" fill="none" xmlns="http://www.w3.org/2000/svg">
<path d="M46.3068 0.000980377H13.6934C6.13194 0.000980377 0.00146484 6.13163 0.00146484 13.6938V46.3072C0.00146484 53.8705 6.13193 60.001 13.6917 60.001H13.8454C15.0697 60.001 16.0785 59.0364 16.1333 57.812L16.7869 43.2349C5.08074 40.6043 10.4922 17.411 19.0837 17.411C27.6734 17.411 33.083 40.6043 21.3786 43.2349L22.0323 57.812C22.0871 59.0364 23.0959 60.001 24.3202 60.001H35.7896C37.0157 60.001 38.0245 59.0346 38.0775 57.8103L38.7595 42.2738C29.5231 40.3287 31.629 26.2498 35.1554 19.1954C35.643 18.2219 36.9415 18.2148 36.9415 19.0876V31.9651C36.9415 32.617 37.4804 33.1435 38.1376 33.1241C38.7718 33.1046 39.263 32.5517 39.263 31.9156V19.1954C39.263 18.1707 40.1234 17.3492 41.1639 17.4145C42.1144 17.4746 42.8335 18.3032 42.8335 19.2554V31.9651C42.8335 32.617 43.3723 33.1435 44.0295 33.1241C44.6656 33.1046 45.1549 32.5517 45.1549 31.9156V19.0876C45.1549 18.2148 46.4535 18.2219 46.9411 19.1954C50.4657 26.2498 52.5716 40.3287 43.337 42.2738L44.0172 57.8103C44.0702 59.0346 45.079 60.001 46.3051 60.001C53.8683 60.001 59.9988 53.8705 59.9988 46.3072V13.6921C59.9988 6.13092 53.8683 0.000980377 46.3068 0.000980377Z" fill="url(#paint0_linear_53_4053)"/>
<defs>
<linearGradient id="paint0_linear_53_4053" x1="59.9988" y1="-0.144778" x2="-0.00118631" y2="59.8526" gradientUnits="userSpaceOnUse">
<stop stop-color="#FF1843"/>
<stop offset="1" stop-color="#FF7E95"/>
</linearGradient>
</defs>
</svg>
