<svg width="20" height="18" viewBox="0 0 20 18" fill="none" xmlns="http://www.w3.org/2000/svg">
<path fill-rule="evenodd" clip-rule="evenodd" d="M1.99976 0.5H17.9998C19.0998 0.5 19.9998 1.4 19.9998 2.5V14.5C19.9998 15.6 19.0998 16.5 17.9998 16.5H4.82763C4.29755 16.5 3.78919 16.7106 3.41437 17.0854C2.1549 18.3449 0.00145256 17.4522 0.00244175 15.671L0.00975932 2.5C0.00975932 1.4 0.899759 0.5 1.99976 0.5ZM14.9998 7.5H4.99976C4.44976 7.5 3.99976 7.95 3.99976 8.5C3.99976 9.05 4.44976 9.5 4.99976 9.5H14.9998C15.5498 9.5 15.9998 9.05 15.9998 8.5C15.9998 7.95 15.5498 7.5 14.9998 7.5ZM10.9998 12.5H4.99976C4.44976 12.5 3.99976 12.05 3.99976 11.5C3.99976 10.95 4.44976 10.5 4.99976 10.5H10.9998C11.5498 10.5 11.9998 10.95 11.9998 11.5C11.9998 12.05 11.5498 12.5 10.9998 12.5ZM4.99976 6.5H14.9998C15.5498 6.5 15.9998 6.05 15.9998 5.5C15.9998 4.95 15.5498 4.5 14.9998 4.5H4.99976C4.44976 4.5 3.99976 4.95 3.99976 5.5C3.99976 6.05 4.44976 6.5 4.99976 6.5Z" fill="black"/>
</svg>
