<svg width="20" height="17" viewBox="0 0 20 17" fill="none" xmlns="http://www.w3.org/2000/svg">
<path d="M7.99766 15.8275V12.8275C7.99766 11.7229 8.89309 10.8275 9.99766 10.8275V10.8275C11.1022 10.8275 11.9977 11.7229 11.9977 12.8275V15.8275C11.9977 16.3775 12.4477 16.8275 12.9977 16.8275H15.9977C16.5477 16.8275 16.9977 16.3775 16.9977 15.8275V10.5275C16.9977 9.5886 17.7588 8.82749 18.6977 8.82749V8.82749C19.1577 8.82749 19.3777 8.25749 19.0277 7.95749L10.6677 0.427485C10.2877 0.0874853 9.70766 0.0874853 9.32766 0.427485L0.967657 7.95749C0.627657 8.25749 0.837657 8.82749 1.29766 8.82749V8.82749C2.23654 8.82749 2.99766 9.5886 2.99766 10.5275V15.8275C2.99766 16.3775 3.44766 16.8275 3.99766 16.8275H6.99766C7.54766 16.8275 7.99766 16.3775 7.99766 15.8275Z" fill="black"/>
</svg>
