<svg width="22" height="21" viewBox="0 0 22 21" fill="none" xmlns="http://www.w3.org/2000/svg">
<path fill-rule="evenodd" clip-rule="evenodd" d="M21 8.00627C18.007 8.00627 15.2116 6.51211 13.5488 4.02355L11.82 1.43627C11.42 0.846274 10.55 0.846274 10.16 1.43627L8.4201 4.04018C6.76422 6.51835 3.98048 8.00627 1 8.00627C0.45 8.00627 0 8.45627 0 9.00627C0 9.09627 0.01 9.18627 0.04 9.27627L2.58 18.5463C2.81 19.3863 3.58 20.0063 4.5 20.0063H17.5C18.42 20.0063 19.19 19.3863 19.43 18.5463L21.8982 9.53828C21.946 9.36388 21.98 9.186 22 9.00627C22 8.45627 21.55 8.00627 21 8.00627ZM10.99 3.79627L13.8 8.00627H8.18L10.99 3.79627ZM9 14.0063C9 15.1063 9.9 16.0063 11 16.0063C12.1 16.0063 13 15.1063 13 14.0063C13 12.9063 12.1 12.0063 11 12.0063C9.9 12.0063 9 12.9063 9 14.0063Z" fill="black"/>
</svg>
